# xmcd
#
# Track frame offsets:
#	150
#	14595
#	33099
#	48078
#	64766
#	80844
#	92625
#	112055
#	128283
#	141559
#	158088
#	171660
#	188623
#	202241
#	217858
#	241113
#
# Disc length: 3425 seconds
#
# Revision: 0
# Processed by: cddbd v1.5.2PL0 Copyright (c) Steve Scherf et al.
# Submitted via: EZCDAudioConverter 7.0.0.1
#
DISCID=dc0d5f10
DTITLE=ŠLĀGERIZLASE - Jāņu Nakts
DYEAR=1900
DGENRE=
TTITLE0=KANTORIS 04 - Jāņu Nakts
TTITLE1=NORMUNDS RUTULIS - Līgo Havajā
TTITLE2=VĒJA RUNA - Jānis Čukčukbānis
TTITLE3=BRĪVDIENA - Dziesma Līgai un Jānim
TTITLE4=3 JAUTRIE LĪGOTĀJI - Jānīšam Uz Galda
TTITLE5=DAINIS PORGANTS - Vienreiz Gadā
TTITLE6=JĀŅU HITMIX - Mix
TTITLE7=ĒRIKS GRUZNIŅŠ - Panāc Pretī
TTITLE8=AIGARIŅŠ - Līgo Jāni
TTITLE9=PĻUMPAPĀ - Sanāciet, Jāņa Bērni
TTITLE10=CĒSU CIEMA KORIS - Līgo Līgo
TTITLE11=LAUKU ZĒNI - Dziesmiņa Par Bomzi
TTITLE12=VELVES - Kamēr Alus Mucās Būs
TTITLE13=AIGARIŅŠ - Alu, Alu
TTITLE14=LIELMEŽU MIĶELIS - Miķelis Līgo
TTITLE15=OKAY - Ielīgošanās Dziesma
EXTD=
EXTT0=
EXTT1=
EXTT2=
EXTT3=
EXTT4=
EXTT5=
EXTT6=
EXTT7=
EXTT8=
EXTT9=
EXTT10=
EXTT11=
EXTT12=
EXTT13=
EXTT14=
EXTT15=
PLAYORDER=
